<svg xmlns="http://www.w3.org/2000/svg" version="1.1" xmlns:xlink="http://www.w3.org/1999/xlink" xmlns:svgjs="http://svgjs.dev/svgjs" width="1000" height="1000" viewBox="0 0 1000 1000"><rect width="1000" height="1000" fill="#000000"></rect><g transform="matrix(0.7,0,0,0.7,149.57575757575756,408.2432239201902)"><svg viewBox="0 0 396 104" data-background-color="#ffffff" preserveAspectRatio="xMidYMid meet" height="262" width="1000" xmlns="http://www.w3.org/2000/svg" xmlns:xlink="http://www.w3.org/1999/xlink"><g id="tight-bounds" transform="matrix(1,0,0,1,0.2400000000000091,0.032373410445273976)"><svg viewBox="0 0 395.52 103.93543077548583" height="103.93543077548583" width="395.52"><g><svg viewBox="0 0 593.8849207404429 156.0621082833313" height="103.93543077548583" width="395.52"><g><rect width="6.7891181770798665" height="75.65963281463961" x="173.80324189037907" y="40.201237734345845" fill="#ffffff" opacity="1" stroke-width="0" stroke="transparent" fill-opacity="1" class="rect-qz-0" data-fill-palette-color="primary" rx="1%" id="qz-0" data-palette-color="#00396b"></rect></g><g transform="matrix(1,0,0,1,198.36492074044287,40.389445776173304)"><svg viewBox="0 0 395.52 75.28321673098469" height="75.28321673098469" width="395.52"><g id="textblocktransform"><svg viewBox="0 0 395.52 75.28321673098469" height="75.28321673098469" width="395.52" id="textblock"><g><svg viewBox="0 0 395.52 75.28321673098469" height="75.28321673098469" width="395.52"><g transform="matrix(1,0,0,1,0,0)"><svg width="395.52" viewBox="4.78 -37.55 200.81 38.23" height="75.28321673098469" data-palette-color="#00396b"><g class="wordmark-text-0" data-fill-palette-color="primary" id="text-0"><path d="M22.13-23.63L22.13-23.63Q22.13-26 21.21-27.43 20.3-28.85 18.64-29.5 16.98-30.15 14.73-30.15L14.73-30.15 10.58-30.15 10.58-16.73 14.8-16.73Q16.98-16.73 18.63-17.38 20.28-18.03 21.2-19.53 22.13-21.03 22.13-23.63ZM28.23-23.68L28.23-23.68Q28.23-19.65 26.51-17.15 24.8-14.65 21.75-13.48 18.7-12.3 14.75-12.3L14.75-12.3 10.58-12.3 10.58 0 4.78 0 4.78-34.5 14.35-34.5Q20.85-34.5 24.54-31.84 28.23-29.18 28.23-23.68ZM57.32-24.53L57.32-24.53Q57.32-21.98 56.28-20.09 55.25-18.2 53.46-16.95 51.67-15.7 49.47-15.03L49.47-15.03 59.25 0 52.5 0 43.82-14.2 40.05-14.2 40.05 0 34.25 0 34.25-34.5 43.87-34.5Q50.52-34.5 53.92-32.01 57.32-29.53 57.32-24.53ZM51.25-24.53L51.25-24.53Q51.25-27.53 49.51-28.86 47.77-30.2 44.2-30.2L44.2-30.2 40.05-30.2 40.05-18.45 44.32-18.45Q47.65-18.45 49.45-19.86 51.25-21.28 51.25-24.53ZM85.32-13.35L64.67-13.35 64.67-17.95 85.32-17.95 85.32-13.35ZM117.82-29.83L107.82-29.83 107.82 0 102.02 0 102.02-29.83 91.67-29.83 91.67-34.5 118.42-34.5 117.82-29.83ZM146.59-11.4L129.09-11.4Q129.27-8.7 130.24-6.99 131.22-5.28 132.8-4.48 134.39-3.68 136.29-3.68L136.29-3.68Q138.24-3.68 139.89-4.28 141.54-4.88 143.22-5.98L143.22-5.98 145.64-2.63Q143.79-1.13 141.31-0.23 138.84 0.68 136.02 0.68L136.02 0.68Q131.92 0.68 129.08-1.07 126.24-2.83 124.77-5.95 123.29-9.08 123.29-13.18L123.29-13.18Q123.29-17.15 124.74-20.29 126.19-23.43 128.89-25.26 131.59-27.1 135.34-27.1L135.34-27.1Q138.87-27.1 141.4-25.5 143.94-23.9 145.33-20.96 146.72-18.03 146.72-13.9L146.72-13.9Q146.72-13.23 146.68-12.56 146.64-11.9 146.59-11.4L146.59-11.4ZM135.39-22.95L135.39-22.95Q132.77-22.95 131.05-21.08 129.34-19.2 129.06-15.23L129.06-15.23 141.29-15.23Q141.22-18.95 139.7-20.95 138.19-22.95 135.39-22.95ZM167.16-3.93L167.16-3.93Q169.01-3.93 170.61-4.56 172.21-5.2 173.66-6.23L173.66-6.23 176.26-2.63Q174.54-1.15 172.08-0.24 169.61 0.68 166.99 0.68L166.99 0.68Q162.94 0.68 160.06-1.04 157.19-2.75 155.66-5.85 154.14-8.95 154.14-13.08L154.14-13.08Q154.14-17.1 155.68-20.26 157.21-23.43 160.11-25.26 163.01-27.1 167.09-27.1L167.09-27.1Q169.79-27.1 172.06-26.3 174.34-25.5 176.24-23.93L176.24-23.93 173.66-20.4Q172.11-21.48 170.5-22.04 168.89-22.6 167.19-22.6L167.19-22.6Q164.06-22.6 162.08-20.3 160.09-18 160.09-13.08L160.09-13.08Q160.09-9.78 161-7.76 161.91-5.75 163.51-4.84 165.11-3.93 167.16-3.93ZM184.44-36.95L190.04-37.55 190.04-23.18Q191.64-25.13 193.79-26.11 195.94-27.1 198.21-27.1L198.21-27.1Q201.94-27.1 203.76-25.04 205.59-22.98 205.59-19.25L205.59-19.25 205.59 0 199.99 0 199.99-18.38Q199.99-20.75 199.09-21.79 198.19-22.83 196.19-22.83L196.19-22.83Q194.94-22.83 193.8-22.26 192.66-21.7 191.7-20.8 190.74-19.9 190.04-18.88L190.04-18.88 190.04 0 184.44 0 184.44-36.95Z" fill="#ffffff" data-fill-palette-color="primary"></path></g></svg></g></svg></g></svg></g></svg></g><g><svg viewBox="0 0 156.03068121739514 156.0621082833313" height="156.0621082833313" width="156.03068121739514"><g><svg xmlns="http://www.w3.org/2000/svg" xmlns:xlink="http://www.w3.org/1999/xlink" version="1.1" x="0" y="0" viewBox="10 9.983886725000001 80 80.016113275" style="enable-background:new 0 0 100 100;" xml:space="preserve" height="156.0621082833313" width="156.03068121739514" class="icon-icon-0" data-fill-palette-color="accent" id="icon-0"><path d="M55.649 38.394c3.653 0 6.625-2.972 6.625-6.625s-2.972-6.625-6.625-6.625-6.625 2.972-6.625 6.625S51.996 38.394 55.649 38.394zM55.649 27.144c2.55 0 4.625 2.075 4.625 4.625s-2.075 4.625-4.625 4.625-4.625-2.075-4.625-4.625S53.1 27.144 55.649 27.144z" fill="#ffffff" data-fill-palette-color="accent"></path><path d="M60.274 71.221c0-4.034-3.282-7.316-7.317-7.317-4.034 0-7.316 3.282-7.316 7.317s3.282 7.316 7.316 7.316C56.992 78.537 60.274 75.255 60.274 71.221zM47.641 71.221c0-2.932 2.385-5.316 5.316-5.317s5.317 2.385 5.317 5.317-2.386 5.316-5.317 5.316S47.641 74.152 47.641 71.221z" fill="#ffffff" data-fill-palette-color="accent"></path><path d="M44.382 84.203c0-3.196-2.601-5.797-5.797-5.797s-5.797 2.601-5.797 5.797S35.389 90 38.585 90 44.382 87.399 44.382 84.203zM34.788 84.203c0-2.094 1.703-3.797 3.797-3.797s3.797 1.703 3.797 3.797S40.679 88 38.585 88 34.788 86.297 34.788 84.203z" fill="#ffffff" data-fill-palette-color="accent"></path><path d="M86.247 60.914h-5.972V42.574c0-4.626-3.763-8.389-8.388-8.388s-8.389 3.763-8.389 8.388V50c0 3.522-2.866 6.389-6.389 6.389S50.721 53.522 50.721 50v-1.778c0-4.626-3.763-8.389-8.389-8.389s-8.389 3.763-8.389 8.389v12.244c0 3.522-2.865 6.389-6.387 6.388s-6.389-2.866-6.389-6.388v-11.594h5.413c2.069 0 3.753-1.684 3.753-3.753V24.151c0-1.57-0.971-2.913-2.342-3.472V11c0-0.553-0.447-1-1-1H13.342c-0.553 0-1 0.447-1 1v9.679C10.971 21.238 10 22.582 10 24.151v20.968c0 2.069 1.684 3.753 3.753 3.753h5.414v11.594c0 4.626 3.763 8.389 8.389 8.388 4.625 0 8.388-3.763 8.387-8.388V48.222c0-3.522 2.866-6.389 6.389-6.389s6.389 2.866 6.389 6.389V50c0 4.626 3.763 8.389 8.388 8.389S65.498 54.626 65.498 50v-7.426c0-3.522 2.866-6.389 6.389-6.388s6.389 2.866 6.388 6.388v18.34h-5.971c-2.069 0-3.753 1.684-3.753 3.753v11.182c0 1.622 1.041 2.994 2.484 3.516V89c0 0.553 0.447 1 1 1H86.516c0.553 0 1-0.447 1-1v-9.635C88.959 78.843 90 77.471 90 75.849V64.667C90 62.598 88.316 60.914 86.247 60.914zM25.991 12v8.398H14.342V12H25.991zM12 45.119V24.151c0-0.967 0.786-1.753 1.753-1.753h12.827c0.967 0 1.753 0.786 1.753 1.753v20.968c0 0.967-0.786 1.753-1.753 1.753H13.753C12.786 46.872 12 46.086 12 45.119zM73.035 88v-8.398H85.516V88H73.035zM88 75.849c0 0.967-0.786 1.753-1.753 1.753H72.304c-0.967 0-1.753-0.786-1.753-1.753V64.667c0-0.967 0.786-1.753 1.753-1.753h13.943C87.214 62.914 88 63.7 88 64.667V75.849z" fill="#ffffff" data-fill-palette-color="accent"></path><path d="M51.458 18.545c0-0.365-0.199-0.702-0.521-0.878l-2.198-1.201c-1.607-0.88-2.922-2.194-3.802-3.802l-1.202-2.198c-0.35-0.643-1.404-0.643-1.754 0l-1.202 2.198c-0.88 1.607-2.194 2.922-3.8 3.802l-2.199 1.202c-0.321 0.175-0.521 0.512-0.52 0.877s0.199 0.702 0.52 0.877l2.199 1.202c1.606 0.879 2.921 2.193 3.8 3.801l1.202 2.198c0.175 0.321 0.512 0.521 0.877 0.521s0.702-0.199 0.877-0.521L44.938 24.425c0.88-1.607 2.194-2.922 3.8-3.8L50.938 19.423C51.259 19.247 51.458 18.91 51.458 18.545zM47.779 18.87c-1.943 1.063-3.532 2.651-4.595 4.596l-0.326 0.594-0.325-0.594c-1.063-1.944-2.652-3.533-4.595-4.596l-0.594-0.325 0.594-0.325c1.942-1.063 3.532-2.653 4.595-4.597l0.325-0.594 0.326 0.594c1.063 1.943 2.652 3.533 4.595 4.598l0.594 0.324L47.779 18.87z" fill="#ffffff" data-fill-palette-color="accent"></path><path d="M10.52 78.414l2.199 1.204c1.607 0.878 2.922 2.192 3.801 3.8l1.202 2.198c0.175 0.321 0.512 0.521 0.877 0.521s0.702-0.199 0.877-0.52l1.204-2.199c0.878-1.607 2.192-2.922 3.8-3.801l2.199-1.203c0.32-0.175 0.52-0.512 0.519-0.877s-0.199-0.702-0.52-0.877l-2.199-1.203c-1.607-0.878-2.922-2.192-3.8-3.801l-1.203-2.198c-0.35-0.641-1.404-0.642-1.754 0.001l-1.203 2.198c-0.878 1.607-2.192 2.922-3.8 3.801l-2.198 1.202C10.199 76.835 10 77.172 10 77.537S10.199 78.239 10.52 78.414zM13.678 77.213c1.944-1.063 3.533-2.652 4.595-4.597l0.326-0.594 0.325 0.594c1.063 1.944 2.652 3.533 4.597 4.596l0.593 0.325-0.593 0.325c-1.944 1.063-3.533 2.652-4.596 4.596l-0.326 0.595-0.325-0.594c-1.063-1.944-2.652-3.533-4.595-4.596l-0.595-0.326L13.678 77.213z" fill="#ffffff" data-fill-palette-color="accent"></path><path d="M89.479 19.745l-2.784-1.522c-2.08-1.138-3.78-2.838-4.918-4.918l-1.522-2.784c-0.35-0.643-1.404-0.643-1.754 0l-1.522 2.783c-1.139 2.081-2.84 3.782-4.919 4.919l-2.785 1.522c-0.321 0.175-0.521 0.512-0.52 0.877s0.199 0.702 0.52 0.877l2.785 1.522c2.08 1.139 3.78 2.839 4.919 4.919l1.522 2.785c0.175 0.321 0.512 0.521 0.877 0.52s0.702-0.199 0.877-0.52l1.523-2.785c1.136-2.079 2.837-3.78 4.917-4.919l2.784-1.522C89.801 21.324 90 20.987 90 20.622S89.801 19.92 89.479 19.745zM85.735 21.268c-2.417 1.322-4.393 3.299-5.712 5.713l-0.645 1.18-0.646-1.18c-1.321-2.417-3.297-4.393-5.713-5.713l-1.18-0.646 1.18-0.644c2.415-1.32 4.392-3.296 5.713-5.714l0.646-1.18 0.645 1.18c1.32 2.417 3.296 4.393 5.713 5.713l1.18 0.645L85.735 21.268z" fill="#ffffff" data-fill-palette-color="accent"></path></svg></g></svg></g></svg></g><defs></defs></svg><rect width="395.52" height="103.93543077548583" fill="none" stroke="none" visibility="hidden"></rect></g></svg></g></svg>