<svg xmlns:xlink="http://www.w3.org/1999/xlink"
     xmlns="http://www.w3.org/2000/svg" version="1.1" x="0" y="0"
     viewBox="10 9.983886725000001 80 80.016113275"
     style="enable-background:new 0 0 100 100;" xml:space="preserve"
     height="156.0621082833313" width="156.03068121739514" class="icon-icon-0"
     data-fill-palette-color="accent" id="icon-0"><path d="M55.649 38.394c3.653 0 6.625-2.972 6.625-6.625s-2.972-6.625-6.625-6.625-6.625 2.972-6.625 6.625S51.996 38.394 55.649 38.394zM55.649 27.144c2.55 0 4.625 2.075 4.625 4.625s-2.075 4.625-4.625 4.625-4.625-2.075-4.625-4.625S53.1 27.144 55.649 27.144z" fill="#00396b" data-fill-palette-color="accent"></path>
    <path
        d="M60.274 71.221c0-4.034-3.282-7.316-7.317-7.317-4.034 0-7.316 3.282-7.316 7.317s3.282 7.316 7.316 7.316C56.992 78.537 60.274 75.255 60.274 71.221zM47.641 71.221c0-2.932 2.385-5.316 5.316-5.317s5.317 2.385 5.317 5.317-2.386 5.316-5.317 5.316S47.641 74.152 47.641 71.221z"
        fill="#00396b" data-fill-palette-color="accent"></path>
    <path
        d="M44.382 84.203c0-3.196-2.601-5.797-5.797-5.797s-5.797 2.601-5.797 5.797S35.389 90 38.585 90 44.382 87.399 44.382 84.203zM34.788 84.203c0-2.094 1.703-3.797 3.797-3.797s3.797 1.703 3.797 3.797S40.679 88 38.585 88 34.788 86.297 34.788 84.203z"
        fill="#00396b" data-fill-palette-color="accent"></path>
    <path
        d="M86.247 60.914h-5.972V42.574c0-4.626-3.763-8.389-8.388-8.388s-8.389 3.763-8.389 8.388V50c0 3.522-2.866 6.389-6.389 6.389S50.721 53.522 50.721 50v-1.778c0-4.626-3.763-8.389-8.389-8.389s-8.389 3.763-8.389 8.389v12.244c0 3.522-2.865 6.389-6.387 6.388s-6.389-2.866-6.389-6.388v-11.594h5.413c2.069 0 3.753-1.684 3.753-3.753V24.151c0-1.57-0.971-2.913-2.342-3.472V11c0-0.553-0.447-1-1-1H13.342c-0.553 0-1 0.447-1 1v9.679C10.971 21.238 10 22.582 10 24.151v20.968c0 2.069 1.684 3.753 3.753 3.753h5.414v11.594c0 4.626 3.763 8.389 8.389 8.388 4.625 0 8.388-3.763 8.387-8.388V48.222c0-3.522 2.866-6.389 6.389-6.389s6.389 2.866 6.389 6.389V50c0 4.626 3.763 8.389 8.388 8.389S65.498 54.626 65.498 50v-7.426c0-3.522 2.866-6.389 6.389-6.388s6.389 2.866 6.388 6.388v18.34h-5.971c-2.069 0-3.753 1.684-3.753 3.753v11.182c0 1.622 1.041 2.994 2.484 3.516V89c0 0.553 0.447 1 1 1H86.516c0.553 0 1-0.447 1-1v-9.635C88.959 78.843 90 77.471 90 75.849V64.667C90 62.598 88.316 60.914 86.247 60.914zM25.991 12v8.398H14.342V12H25.991zM12 45.119V24.151c0-0.967 0.786-1.753 1.753-1.753h12.827c0.967 0 1.753 0.786 1.753 1.753v20.968c0 0.967-0.786 1.753-1.753 1.753H13.753C12.786 46.872 12 46.086 12 45.119zM73.035 88v-8.398H85.516V88H73.035zM88 75.849c0 0.967-0.786 1.753-1.753 1.753H72.304c-0.967 0-1.753-0.786-1.753-1.753V64.667c0-0.967 0.786-1.753 1.753-1.753h13.943C87.214 62.914 88 63.7 88 64.667V75.849z"
        fill="#00396b" data-fill-palette-color="accent"></path>
    <path
        d="M51.458 18.545c0-0.365-0.199-0.702-0.521-0.878l-2.198-1.201c-1.607-0.88-2.922-2.194-3.802-3.802l-1.202-2.198c-0.35-0.643-1.404-0.643-1.754 0l-1.202 2.198c-0.88 1.607-2.194 2.922-3.8 3.802l-2.199 1.202c-0.321 0.175-0.521 0.512-0.52 0.877s0.199 0.702 0.52 0.877l2.199 1.202c1.606 0.879 2.921 2.193 3.8 3.801l1.202 2.198c0.175 0.321 0.512 0.521 0.877 0.521s0.702-0.199 0.877-0.521L44.938 24.425c0.88-1.607 2.194-2.922 3.8-3.8L50.938 19.423C51.259 19.247 51.458 18.91 51.458 18.545zM47.779 18.87c-1.943 1.063-3.532 2.651-4.595 4.596l-0.326 0.594-0.325-0.594c-1.063-1.944-2.652-3.533-4.595-4.596l-0.594-0.325 0.594-0.325c1.942-1.063 3.532-2.653 4.595-4.597l0.325-0.594 0.326 0.594c1.063 1.943 2.652 3.533 4.595 4.598l0.594 0.324L47.779 18.87z"
        fill="#00396b" data-fill-palette-color="accent"></path>
    <path
        d="M10.52 78.414l2.199 1.204c1.607 0.878 2.922 2.192 3.801 3.8l1.202 2.198c0.175 0.321 0.512 0.521 0.877 0.521s0.702-0.199 0.877-0.52l1.204-2.199c0.878-1.607 2.192-2.922 3.8-3.801l2.199-1.203c0.32-0.175 0.52-0.512 0.519-0.877s-0.199-0.702-0.52-0.877l-2.199-1.203c-1.607-0.878-2.922-2.192-3.8-3.801l-1.203-2.198c-0.35-0.641-1.404-0.642-1.754 0.001l-1.203 2.198c-0.878 1.607-2.192 2.922-3.8 3.801l-2.198 1.202C10.199 76.835 10 77.172 10 77.537S10.199 78.239 10.52 78.414zM13.678 77.213c1.944-1.063 3.533-2.652 4.595-4.597l0.326-0.594 0.325 0.594c1.063 1.944 2.652 3.533 4.597 4.596l0.593 0.325-0.593 0.325c-1.944 1.063-3.533 2.652-4.596 4.596l-0.326 0.595-0.325-0.594c-1.063-1.944-2.652-3.533-4.595-4.596l-0.595-0.326L13.678 77.213z"
        fill="#00396b" data-fill-palette-color="accent"></path>
    <path
        d="M89.479 19.745l-2.784-1.522c-2.08-1.138-3.78-2.838-4.918-4.918l-1.522-2.784c-0.35-0.643-1.404-0.643-1.754 0l-1.522 2.783c-1.139 2.081-2.84 3.782-4.919 4.919l-2.785 1.522c-0.321 0.175-0.521 0.512-0.52 0.877s0.199 0.702 0.52 0.877l2.785 1.522c2.08 1.139 3.78 2.839 4.919 4.919l1.522 2.785c0.175 0.321 0.512 0.521 0.877 0.52s0.702-0.199 0.877-0.52l1.523-2.785c1.136-2.079 2.837-3.78 4.917-4.919l2.784-1.522C89.801 21.324 90 20.987 90 20.622S89.801 19.92 89.479 19.745zM85.735 21.268c-2.417 1.322-4.393 3.299-5.712 5.713l-0.645 1.18-0.646-1.18c-1.321-2.417-3.297-4.393-5.713-5.713l-1.18-0.646 1.18-0.644c2.415-1.32 4.392-3.296 5.713-5.714l0.646-1.18 0.645 1.18c1.32 2.417 3.296 4.393 5.713 5.713l1.18 0.645L85.735 21.268z"
        fill="#00396b" data-fill-palette-color="accent"></path>
</svg>
